<mxfile host="app.diagrams.net" modified="2022-05-29T16:29:39.618Z" agent="5.0 (Windows NT 10.0; Win64; x64) AppleWebKit/537.36 (KHTML, like Gecko) Chrome/101.0.4951.64 Safari/537.36 OPR/87.0.4390.25" etag="HIDSfBcdohW_wKetU1DH" version="18.1.3" type="github">
  <diagram id="EVQNyl56Eiwp7dvU3nQn" name="Page-1">
    <mxGraphModel dx="1292" dy="632" grid="1" gridSize="10" guides="1" tooltips="1" connect="1" arrows="1" fold="1" page="1" pageScale="1" pageWidth="827" pageHeight="1169" math="0" shadow="0">
      <root>
        <mxCell id="0" />
        <mxCell id="1" parent="0" />
        <mxCell id="wKNqHL_7IhVsEVUpEFxD-1" value="Библиотечные залы" style="rounded=0;whiteSpace=wrap;html=1;" vertex="1" parent="1">
          <mxGeometry x="250" y="110" width="120" height="60" as="geometry" />
        </mxCell>
        <mxCell id="wKNqHL_7IhVsEVUpEFxD-2" value="Стелажи" style="rounded=0;whiteSpace=wrap;html=1;" vertex="1" parent="1">
          <mxGeometry x="250" y="260" width="120" height="60" as="geometry" />
        </mxCell>
        <mxCell id="wKNqHL_7IhVsEVUpEFxD-3" value="Книги" style="rounded=0;whiteSpace=wrap;html=1;" vertex="1" parent="1">
          <mxGeometry x="530" y="180" width="120" height="60" as="geometry" />
        </mxCell>
        <mxCell id="wKNqHL_7IhVsEVUpEFxD-4" value="" style="ellipse;whiteSpace=wrap;html=1;" vertex="1" parent="1">
          <mxGeometry x="80" y="60" width="60" height="40" as="geometry" />
        </mxCell>
        <mxCell id="wKNqHL_7IhVsEVUpEFxD-5" value="" style="ellipse;whiteSpace=wrap;html=1;" vertex="1" parent="1">
          <mxGeometry x="100" y="10" width="60" height="40" as="geometry" />
        </mxCell>
        <mxCell id="wKNqHL_7IhVsEVUpEFxD-6" value="" style="ellipse;whiteSpace=wrap;html=1;" vertex="1" parent="1">
          <mxGeometry y="10" width="60" height="40" as="geometry" />
        </mxCell>
        <mxCell id="wKNqHL_7IhVsEVUpEFxD-7" value="" style="ellipse;whiteSpace=wrap;html=1;" vertex="1" parent="1">
          <mxGeometry x="30" y="90" width="60" height="40" as="geometry" />
        </mxCell>
        <mxCell id="wKNqHL_7IhVsEVUpEFxD-8" value="Полное название" style="ellipse;whiteSpace=wrap;html=1;" vertex="1" parent="1">
          <mxGeometry x="140" y="120" width="60" height="40" as="geometry" />
        </mxCell>
        <mxCell id="wKNqHL_7IhVsEVUpEFxD-9" value="Краткое название" style="ellipse;whiteSpace=wrap;html=1;" vertex="1" parent="1">
          <mxGeometry x="280" y="30" width="60" height="40" as="geometry" />
        </mxCell>
        <mxCell id="wKNqHL_7IhVsEVUpEFxD-10" value="" style="endArrow=none;html=1;rounded=0;entryX=0;entryY=0.5;entryDx=0;entryDy=0;exitX=1;exitY=0.5;exitDx=0;exitDy=0;" edge="1" parent="1" source="wKNqHL_7IhVsEVUpEFxD-8" target="wKNqHL_7IhVsEVUpEFxD-1">
          <mxGeometry width="50" height="50" relative="1" as="geometry">
            <mxPoint x="130" y="260" as="sourcePoint" />
            <mxPoint x="180" y="210" as="targetPoint" />
          </mxGeometry>
        </mxCell>
        <mxCell id="wKNqHL_7IhVsEVUpEFxD-11" value="" style="endArrow=none;html=1;rounded=0;entryX=0.5;entryY=1;entryDx=0;entryDy=0;exitX=0.5;exitY=0;exitDx=0;exitDy=0;" edge="1" parent="1" source="wKNqHL_7IhVsEVUpEFxD-1" target="wKNqHL_7IhVsEVUpEFxD-9">
          <mxGeometry width="50" height="50" relative="1" as="geometry">
            <mxPoint x="230" y="90" as="sourcePoint" />
            <mxPoint x="280" y="40" as="targetPoint" />
          </mxGeometry>
        </mxCell>
        <mxCell id="wKNqHL_7IhVsEVUpEFxD-12" value="" style="ellipse;whiteSpace=wrap;html=1;" vertex="1" parent="1">
          <mxGeometry y="140" width="60" height="40" as="geometry" />
        </mxCell>
        <mxCell id="wKNqHL_7IhVsEVUpEFxD-13" value="" style="ellipse;whiteSpace=wrap;html=1;" vertex="1" parent="1">
          <mxGeometry x="140" y="270" width="60" height="40" as="geometry" />
        </mxCell>
        <mxCell id="wKNqHL_7IhVsEVUpEFxD-14" value="" style="ellipse;whiteSpace=wrap;html=1;" vertex="1" parent="1">
          <mxGeometry x="30" y="190" width="60" height="40" as="geometry" />
        </mxCell>
      </root>
    </mxGraphModel>
  </diagram>
</mxfile>
